<?xml version="1.0" encoding="UTF-8" standalone="no"?>
<!DOCTYPE svg PUBLIC "-//W3C//DTD SVG 1.1//EN"
 "http://www.w3.org/Graphics/SVG/1.1/DTD/svg11.dtd">
<!-- Generated by graphviz version 2.38.0 (20140413.2041)
 -->
<!-- Title: models_diagram Pages: 1 -->
<svg width="3521pt" height="412pt"
 viewBox="0.00 0.00 3520.72 412.00" xmlns="http://www.w3.org/2000/svg" xmlns:xlink="http://www.w3.org/1999/xlink">
<g id="graph0" class="graph" transform="scale(1 1) rotate(0) translate(4 408)">
<title>models_diagram</title>
<polygon fill="none" stroke="none" points="-4,4 -4,-408 3516.72,-408 3516.72,4 -4,4"/>
<!-- _diagram_info -->
<g id="node1" class="node"><title>_diagram_info</title>
<text text-anchor="start" x="8" y="-389.6" font-family="Times,serif" font-size="13.00">Models diagram</text>
<text text-anchor="start" x="8" y="-376.6" font-family="Times,serif" font-size="13.00">Date: Aug 06 2015 &#45; 15:49</text>
<text text-anchor="start" x="8" y="-363.6" font-family="Times,serif" font-size="13.00">Migration version: 20150612045544</text>
<text text-anchor="start" x="8" y="-350.6" font-family="Times,serif" font-size="13.00">Generated by RailRoady 1.3.1</text>
<text text-anchor="start" x="8" y="-337.6" font-family="Times,serif" font-size="13.00">http://railroady.prestonlee.com</text>
</g>
<!-- AdjustmentMetadata -->
<g id="node2" class="node"><title>AdjustmentMetadata</title>
<ellipse fill="none" stroke="black" cx="309.688" cy="-367.5" rx="84.0496" ry="18"/>
<text text-anchor="middle" x="309.688" y="-363.3" font-family="Times,serif" font-size="14.00">AdjustmentMetadata</text>
</g>
<!-- Cart -->
<g id="node3" class="node"><title>Cart</title>
<ellipse fill="none" stroke="black" cx="438.688" cy="-367.5" rx="27" ry="18"/>
<text text-anchor="middle" x="438.688" y="-363.3" font-family="Times,serif" font-size="14.00">Cart</text>
</g>
<!-- Spree::Order -->
<g id="node30" class="node"><title>Spree::Order</title>
<ellipse fill="none" stroke="black" cx="438.688" cy="-263" rx="55.5596" ry="18"/>
<text text-anchor="middle" x="438.688" y="-258.8" font-family="Times,serif" font-size="14.00">Spree::Order</text>
</g>
<!-- Cart&#45;&gt;Spree::Order -->
<g id="edge1" class="edge"><title>Cart&#45;&gt;Spree::Order</title>
<path fill="none" stroke="#61a8ef" d="M438.688,-341.017C438.688,-325.986 438.688,-306.959 438.688,-291.577"/>
<ellipse fill="none" stroke="#61a8ef" cx="438.688" cy="-345.112" rx="4" ry="4"/>
<polygon fill="#61a8ef" stroke="#61a8ef" points="438.688,-291.131 443.188,-281.131 438.688,-286.131 438.688,-281.131 438.688,-281.131 438.688,-281.131 438.688,-286.131 434.188,-281.131 438.688,-291.131 438.688,-291.131"/>
<text text-anchor="middle" x="456.181" y="-301.8" font-family="Times,serif" font-size="14.00">orders</text>
</g>
<!-- ContentConfiguration -->
<g id="node4" class="node"><title>ContentConfiguration</title>
<polygon fill="none" stroke="black" points="1692.8,-385.5 1554.58,-385.5 1554.58,-349.5 1692.8,-349.5 1692.8,-385.5"/>
<text text-anchor="middle" x="1623.69" y="-363.3" font-family="Times,serif" font-size="14.00">ContentConfiguration</text>
</g>
<!-- Customer -->
<g id="node5" class="node"><title>Customer</title>
<ellipse fill="none" stroke="black" cx="556.688" cy="-263" rx="44.4923" ry="18"/>
<text text-anchor="middle" x="556.688" y="-258.8" font-family="Times,serif" font-size="14.00">Customer</text>
</g>
<!-- ActsAsTaggableOn::Tagging -->
<g id="node31" class="node"><title>ActsAsTaggableOn::Tagging</title>
<ellipse fill="none" stroke="black" cx="403.688" cy="-177" rx="113.006" ry="18"/>
<text text-anchor="middle" x="403.688" y="-172.8" font-family="Times,serif" font-size="14.00">ActsAsTaggableOn::Tagging</text>
</g>
<!-- Customer&#45;&gt;ActsAsTaggableOn::Tagging -->
<g id="edge2" class="edge"><title>Customer&#45;&gt;ActsAsTaggableOn::Tagging</title>
<path fill="none" stroke="#9ccaf3" d="M516.133,-248.343C511.953,-247.13 507.75,-245.99 503.688,-245 480.38,-239.322 412.731,-245.323 397.246,-227 392.106,-220.918 391.54,-212.805 392.906,-204.934"/>
<ellipse fill="none" stroke="#9ccaf3" cx="520.27" cy="-249.588" rx="4.00001" ry="4.00001"/>
<polygon fill="#9ccaf3" stroke="#9ccaf3" points="392.908,-204.929 399.822,-196.417 394.19,-200.096 395.472,-195.263 395.472,-195.263 395.472,-195.263 394.19,-200.096 391.123,-194.109 392.908,-204.929 392.908,-204.929"/>
<text text-anchor="middle" x="421.408" y="-215.8" font-family="Times,serif" font-size="14.00">taggings</text>
</g>
<!-- Customer&#45;&gt;ActsAsTaggableOn::Tagging -->
<g id="edge4" class="edge"><title>Customer&#45;&gt;ActsAsTaggableOn::Tagging</title>
<path fill="none" stroke="#ae8b36" d="M519.667,-246.012C507.251,-240.344 493.441,-233.702 481.143,-227 466.243,-218.88 450.316,-209.023 436.803,-200.284"/>
<ellipse fill="none" stroke="#ae8b36" cx="523.546" cy="-247.762" rx="4.00002" ry="4.00002"/>
<polygon fill="#ae8b36" stroke="#ae8b36" points="436.679,-200.202 430.769,-190.965 432.493,-197.467 428.307,-194.732 428.307,-194.732 428.307,-194.732 432.493,-197.467 425.846,-198.499 436.679,-200.202 436.679,-200.202"/>
<text text-anchor="middle" x="517.46" y="-215.8" font-family="Times,serif" font-size="14.00">tag_taggings</text>
</g>
<!-- ActsAsTaggableOn::Tag -->
<g id="node32" class="node"><title>ActsAsTaggableOn::Tag</title>
<ellipse fill="none" stroke="black" cx="634.688" cy="-177" rx="97.0617" ry="18"/>
<text text-anchor="middle" x="634.688" y="-172.8" font-family="Times,serif" font-size="14.00">ActsAsTaggableOn::Tag</text>
</g>
<!-- Customer&#45;&gt;ActsAsTaggableOn::Tag -->
<g id="edge3" class="edge"><title>Customer&#45;&gt;ActsAsTaggableOn::Tag</title>
<path fill="none" stroke="#9f660d" d="M555.096,-234.421C555.864,-226.919 557.883,-219.171 562.26,-213 566.482,-207.048 571.997,-202.068 578.102,-197.911"/>
<polygon fill="#9f660d" stroke="#9f660d" points="555.087,-234.678 550.232,-244.511 554.908,-239.675 554.729,-244.672 554.729,-244.672 554.729,-244.672 554.908,-239.675 559.226,-244.833 555.087,-234.678 555.087,-234.678"/>
<polygon fill="#9f660d" stroke="#9f660d" points="578.152,-197.881 589.042,-196.597 582.439,-195.309 586.727,-192.738 586.727,-192.738 586.727,-192.738 582.439,-195.309 584.413,-188.878 578.152,-197.881 578.152,-197.881"/>
<text text-anchor="middle" x="589.902" y="-215.8" font-family="Times,serif" font-size="14.00">base_tags</text>
</g>
<!-- Customer&#45;&gt;ActsAsTaggableOn::Tag -->
<g id="edge5" class="edge"><title>Customer&#45;&gt;ActsAsTaggableOn::Tag</title>
<path fill="none" stroke="#fb91f8" d="M595.596,-244.617C603.357,-239.782 610.892,-233.918 616.688,-227 621.949,-220.721 625.739,-212.767 628.44,-205.104"/>
<polygon fill="#fb91f8" stroke="#fb91f8" points="595.496,-244.674 584.582,-245.735 591.157,-247.158 586.817,-249.641 586.817,-249.641 586.817,-249.641 591.157,-247.158 589.052,-253.547 595.496,-244.674 595.496,-244.674"/>
<polygon fill="#fb91f8" stroke="#fb91f8" points="628.493,-204.931 635.703,-196.67 629.945,-200.147 631.397,-195.363 631.397,-195.363 631.397,-195.363 629.945,-200.147 627.091,-194.055 628.493,-204.931 628.493,-204.931"/>
<text text-anchor="middle" x="636.964" y="-215.8" font-family="Times,serif" font-size="14.00">tags</text>
</g>
<!-- DistributorShippingMethod -->
<g id="node6" class="node"><title>DistributorShippingMethod</title>
<ellipse fill="none" stroke="black" cx="727.688" cy="-263" rx="108.239" ry="18"/>
<text text-anchor="middle" x="727.688" y="-258.8" font-family="Times,serif" font-size="14.00">DistributorShippingMethod</text>
</g>
<!-- Enterprise -->
<g id="node7" class="node"><title>Enterprise</title>
<ellipse fill="none" stroke="black" cx="1486.69" cy="-367.5" rx="46.3959" ry="18"/>
<text text-anchor="middle" x="1486.69" y="-363.3" font-family="Times,serif" font-size="14.00">Enterprise</text>
</g>
<!-- Enterprise&#45;&gt;Customer -->
<g id="edge21" class="edge"><title>Enterprise&#45;&gt;Customer</title>
<path fill="none" stroke="#fc985c" d="M1432.11,-365.17C1293.47,-360.931 917.021,-344.04 610.688,-281 606.845,-280.209 602.887,-279.251 598.944,-278.198"/>
<ellipse fill="none" stroke="#fc985c" cx="1436.11" cy="-365.289" rx="4" ry="4"/>
<polygon fill="#fc985c" stroke="#fc985c" points="598.86,-278.174 590.483,-271.098 594.053,-276.799 589.246,-275.424 589.246,-275.424 589.246,-275.424 594.053,-276.799 588.008,-279.751 598.86,-278.174 598.86,-278.174"/>
</g>
<!-- Enterprise&#45;&gt;DistributorShippingMethod -->
<g id="edge19" class="edge"><title>Enterprise&#45;&gt;DistributorShippingMethod</title>
<path fill="none" stroke="#85604b" d="M1433.95,-361.392C1347.18,-352.78 1168.91,-334.219 1018.69,-313 946.996,-302.874 865.775,-288.995 807.394,-278.592"/>
<ellipse fill="none" stroke="#85604b" cx="1438.08" cy="-361.8" rx="4" ry="4"/>
<polygon fill="#85604b" stroke="#85604b" points="807.341,-278.583 798.289,-272.394 802.419,-277.703 797.497,-276.823 797.497,-276.823 797.497,-276.823 802.419,-277.703 796.705,-281.253 807.341,-278.583 807.341,-278.583"/>
</g>
<!-- EnterpriseFee -->
<g id="node8" class="node"><title>EnterpriseFee</title>
<ellipse fill="none" stroke="black" cx="913.688" cy="-263" rx="59.4339" ry="18"/>
<text text-anchor="middle" x="913.688" y="-258.8" font-family="Times,serif" font-size="14.00">EnterpriseFee</text>
</g>
<!-- Enterprise&#45;&gt;EnterpriseFee -->
<g id="edge15" class="edge"><title>Enterprise&#45;&gt;EnterpriseFee</title>
<path fill="none" stroke="#6d54ed" d="M1433.39,-362.326C1354.72,-355.541 1203.17,-340.075 1076.69,-313 1036.88,-304.479 992.722,-290.941 960.416,-280.252"/>
<ellipse fill="none" stroke="#6d54ed" cx="1437.71" cy="-362.694" rx="4" ry="4"/>
<polygon fill="#6d54ed" stroke="#6d54ed" points="960.273,-280.204 952.215,-272.767 955.531,-278.62 950.789,-277.035 950.789,-277.035 950.789,-277.035 955.531,-278.62 949.363,-281.303 960.273,-280.204 960.273,-280.204"/>
</g>
<!-- EnterpriseGroup -->
<g id="node10" class="node"><title>EnterpriseGroup</title>
<ellipse fill="none" stroke="black" cx="1059.69" cy="-263" rx="69.0891" ry="18"/>
<text text-anchor="middle" x="1059.69" y="-258.8" font-family="Times,serif" font-size="14.00">EnterpriseGroup</text>
</g>
<!-- Enterprise&#45;&gt;EnterpriseGroup -->
<g id="edge8" class="edge"><title>Enterprise&#45;&gt;EnterpriseGroup</title>
<path fill="none" stroke="#7b222c" d="M1430.38,-364.269C1335.79,-359.632 1149.9,-346.451 1094.58,-313 1085.56,-307.546 1078.23,-298.775 1072.65,-290.151"/>
<polygon fill="#7b222c" stroke="#7b222c" points="1430.63,-364.28 1440.41,-369.25 1435.63,-364.518 1440.62,-364.755 1440.62,-364.755 1440.62,-364.755 1435.63,-364.518 1440.83,-360.26 1430.63,-364.28 1430.63,-364.28"/>
<polygon fill="#7b222c" stroke="#7b222c" points="1072.56,-289.983 1071.37,-279.082 1070.02,-285.673 1067.49,-281.362 1067.49,-281.362 1067.49,-281.362 1070.02,-285.673 1063.61,-283.643 1072.56,-289.983 1072.56,-289.983"/>
<text text-anchor="middle" x="1113.74" y="-301.8" font-family="Times,serif" font-size="14.00">groups</text>
</g>
<!-- EnterpriseRelationship -->
<g id="node11" class="node"><title>EnterpriseRelationship</title>
<ellipse fill="none" stroke="black" cx="1237.69" cy="-263" rx="91.3067" ry="18"/>
<text text-anchor="middle" x="1237.69" y="-258.8" font-family="Times,serif" font-size="14.00">EnterpriseRelationship</text>
</g>
<!-- Enterprise&#45;&gt;EnterpriseRelationship -->
<g id="edge6" class="edge"><title>Enterprise&#45;&gt;EnterpriseRelationship</title>
<path fill="none" stroke="#c63d51" d="M1432.45,-364.65C1355.99,-360.772 1222.47,-348.907 1192.5,-313 1185.07,-304.097 1190.38,-294.655 1199.6,-286.462"/>
<ellipse fill="none" stroke="#c63d51" cx="1436.58" cy="-364.85" rx="4" ry="4"/>
<polygon fill="#c63d51" stroke="#c63d51" points="1199.76,-286.332 1210.42,-283.744 1203.71,-283.262 1207.66,-280.192 1207.66,-280.192 1207.66,-280.192 1203.71,-283.262 1204.89,-276.64 1199.76,-286.332 1199.76,-286.332"/>
<text text-anchor="middle" x="1258.78" y="-301.8" font-family="Times,serif" font-size="14.00">relationships_as_parent</text>
</g>
<!-- Enterprise&#45;&gt;EnterpriseRelationship -->
<g id="edge7" class="edge"><title>Enterprise&#45;&gt;EnterpriseRelationship</title>
<path fill="none" stroke="#a1155b" d="M1442.52,-353.582C1413.47,-344.233 1375.12,-330.234 1343.49,-313 1334.34,-308.016 1333.77,-304.097 1324.69,-299 1314.04,-293.025 1302.16,-287.547 1290.69,-282.788"/>
<ellipse fill="none" stroke="#a1155b" cx="1446.64" cy="-354.887" rx="4.00001" ry="4.00001"/>
<polygon fill="#a1155b" stroke="#a1155b" points="1290.46,-282.697 1282.87,-274.789 1285.83,-280.83 1281.19,-278.964 1281.19,-278.964 1281.19,-278.964 1285.83,-280.83 1279.51,-283.139 1290.46,-282.697 1290.46,-282.697"/>
<text text-anchor="middle" x="1406.29" y="-301.8" font-family="Times,serif" font-size="14.00">relationships_as_child</text>
</g>
<!-- EnterpriseRole -->
<g id="node13" class="node"><title>EnterpriseRole</title>
<ellipse fill="none" stroke="black" cx="1409.69" cy="-263" rx="63.301" ry="18"/>
<text text-anchor="middle" x="1409.69" y="-258.8" font-family="Times,serif" font-size="14.00">EnterpriseRole</text>
</g>
<!-- Enterprise&#45;&gt;EnterpriseRole -->
<g id="edge16" class="edge"><title>Enterprise&#45;&gt;EnterpriseRole</title>
<path fill="none" stroke="#80041c" d="M1486.43,-341.317C1485.15,-327.657 1481.61,-311.136 1472.69,-299 1468.05,-292.692 1461.91,-287.377 1455.29,-282.946"/>
<ellipse fill="none" stroke="#80041c" cx="1486.7" cy="-345.396" rx="4" ry="4"/>
<polygon fill="#80041c" stroke="#80041c" points="1455.29,-282.945 1449.03,-273.94 1451,-280.371 1446.72,-277.798 1446.72,-277.798 1446.72,-277.798 1451,-280.371 1444.4,-281.656 1455.29,-282.945 1455.29,-282.945"/>
</g>
<!-- ProducerProperty -->
<g id="node22" class="node"><title>ProducerProperty</title>
<ellipse fill="none" stroke="black" cx="1563.69" cy="-263" rx="72.4722" ry="18"/>
<text text-anchor="middle" x="1563.69" y="-258.8" font-family="Times,serif" font-size="14.00">ProducerProperty</text>
</g>
<!-- Enterprise&#45;&gt;ProducerProperty -->
<g id="edge9" class="edge"><title>Enterprise&#45;&gt;ProducerProperty</title>
<path fill="none" stroke="#da2bb0" d="M1504.05,-343.39C1516.23,-327.181 1532.49,-305.529 1544.96,-288.931"/>
<ellipse fill="none" stroke="#da2bb0" cx="1501.46" cy="-346.833" rx="4.00002" ry="4.00002"/>
<polygon fill="#da2bb0" stroke="#da2bb0" points="1545.08,-288.763 1554.69,-283.471 1548.09,-284.766 1551.09,-280.768 1551.09,-280.768 1551.09,-280.768 1548.09,-284.766 1547.49,-278.065 1545.08,-288.763 1545.08,-288.763"/>
</g>
<!-- ProductDistribution -->
<g id="node23" class="node"><title>ProductDistribution</title>
<ellipse fill="none" stroke="black" cx="1734.69" cy="-263" rx="80.2248" ry="18"/>
<text text-anchor="middle" x="1734.69" y="-258.8" font-family="Times,serif" font-size="14.00">ProductDistribution</text>
</g>
<!-- Enterprise&#45;&gt;ProductDistribution -->
<g id="edge13" class="edge"><title>Enterprise&#45;&gt;ProductDistribution</title>
<path fill="none" stroke="#0d5f44" d="M1515.93,-347.321C1525.23,-341.658 1535.7,-335.718 1545.69,-331 1588.75,-310.668 1639.74,-292.936 1677.91,-280.83"/>
<ellipse fill="none" stroke="#0d5f44" cx="1512.47" cy="-349.465" rx="4.00002" ry="4.00002"/>
<polygon fill="#0d5f44" stroke="#0d5f44" points="1678.28,-280.715 1689.16,-282.015 1683.05,-279.218 1687.82,-277.722 1687.82,-277.722 1687.82,-277.722 1683.05,-279.218 1686.47,-273.428 1678.28,-280.715 1678.28,-280.715"/>
</g>
<!-- Enterprise&#45;&gt;Spree::Order -->
<g id="edge12" class="edge"><title>Enterprise&#45;&gt;Spree::Order</title>
<path fill="none" stroke="#8e429f" d="M1431.65,-366.856C1294.23,-366.931 925.365,-362.126 622.819,-313 575.662,-305.343 523.11,-290.73 486.258,-279.447"/>
<ellipse fill="none" stroke="#8e429f" cx="1435.97" cy="-366.85" rx="4" ry="4"/>
<polygon fill="#8e429f" stroke="#8e429f" points="485.85,-279.321 477.63,-272.063 481.074,-277.841 476.298,-276.362 476.298,-276.362 476.298,-276.362 481.074,-277.841 474.966,-280.66 485.85,-279.321 485.85,-279.321"/>
<text text-anchor="middle" x="674.622" y="-301.8" font-family="Times,serif" font-size="14.00">distributed_orders</text>
</g>
<!-- Spree::Property -->
<g id="node33" class="node"><title>Spree::Property</title>
<ellipse fill="none" stroke="black" cx="1898.69" cy="-263" rx="65.7235" ry="18"/>
<text text-anchor="middle" x="1898.69" y="-258.8" font-family="Times,serif" font-size="14.00">Spree::Property</text>
</g>
<!-- Enterprise&#45;&gt;Spree::Property -->
<g id="edge10" class="edge"><title>Enterprise&#45;&gt;Spree::Property</title>
<path fill="none" stroke="#910cca" d="M1516.24,-345.856C1525.34,-340.3 1535.62,-334.788 1545.69,-331 1575.06,-319.95 1792.93,-287.248 1823.69,-281 1829.08,-279.904 1834.69,-278.719 1840.3,-277.503"/>
<polygon fill="#910cca" stroke="#910cca" points="1516.02,-345.995 1505.17,-347.568 1511.8,-348.68 1507.58,-351.365 1507.58,-351.365 1507.58,-351.365 1511.8,-348.68 1510,-355.161 1516.02,-345.995 1516.02,-345.995"/>
<polygon fill="#910cca" stroke="#910cca" points="1840.58,-277.442 1851.31,-279.689 1845.46,-276.368 1850.34,-275.294 1850.34,-275.294 1850.34,-275.294 1845.46,-276.368 1849.38,-270.899 1840.58,-277.442 1840.58,-277.442"/>
<text text-anchor="middle" x="1742.68" y="-301.8" font-family="Times,serif" font-size="14.00">properties</text>
</g>
<!-- Spree::Product -->
<g id="node34" class="node"><title>Spree::Product</title>
<ellipse fill="none" stroke="black" cx="2044.69" cy="-263" rx="62.8339" ry="18"/>
<text text-anchor="middle" x="2044.69" y="-258.8" font-family="Times,serif" font-size="14.00">Spree::Product</text>
</g>
<!-- Enterprise&#45;&gt;Spree::Product -->
<g id="edge11" class="edge"><title>Enterprise&#45;&gt;Spree::Product</title>
<path fill="none" stroke="#e03157" d="M1513.57,-346.741C1523.23,-340.636 1534.51,-334.581 1545.69,-331 1642.91,-299.851 1673.32,-325.114 1774.69,-313 1863.64,-302.37 1885.84,-298.553 1973.69,-281 1978.69,-280.001 1983.87,-278.897 1989.05,-277.744"/>
<ellipse fill="none" stroke="#e03157" cx="1510.19" cy="-348.963" rx="4.00002" ry="4.00002"/>
<polygon fill="#e03157" stroke="#e03157" points="1989.22,-277.706 1999.97,-279.872 1994.09,-276.595 1998.97,-275.484 1998.97,-275.484 1998.97,-275.484 1994.09,-276.595 1997.97,-271.096 1989.22,-277.706 1989.22,-277.706"/>
<text text-anchor="middle" x="1930.02" y="-301.8" font-family="Times,serif" font-size="14.00">supplied_products</text>
</g>
<!-- Enterprise&#45;&gt;Spree::Product -->
<g id="edge14" class="edge"><title>Enterprise&#45;&gt;Spree::Product</title>
<path fill="none" stroke="#f7ac21" d="M1514.97,-345.574C1524.29,-339.776 1535.01,-334.2 1545.69,-331 1639.43,-302.897 1894.34,-348.112 1985.69,-313 1999.55,-307.67 2012.54,-297.68 2022.78,-288.104"/>
<polygon fill="#f7ac21" stroke="#f7ac21" points="1514.87,-345.64 1504.04,-347.368 1510.69,-348.385 1506.51,-351.13 1506.51,-351.13 1506.51,-351.13 1510.69,-348.385 1508.98,-354.891 1514.87,-345.64 1514.87,-345.64"/>
<polygon fill="#f7ac21" stroke="#f7ac21" points="2022.92,-287.964 2033.2,-284.15 2026.48,-284.455 2030.04,-280.945 2030.04,-280.945 2030.04,-280.945 2026.48,-284.455 2026.88,-277.74 2022.92,-287.964 2022.92,-287.964"/>
<text text-anchor="middle" x="2067.24" y="-301.8" font-family="Times,serif" font-size="14.00">distributed_products</text>
</g>
<!-- Spree::User -->
<g id="node35" class="node"><title>Spree::User</title>
<ellipse fill="none" stroke="black" cx="2177.69" cy="-263" rx="51.7088" ry="18"/>
<text text-anchor="middle" x="2177.69" y="-258.8" font-family="Times,serif" font-size="14.00">Spree::User</text>
</g>
<!-- Enterprise&#45;&gt;Spree::User -->
<g id="edge17" class="edge"><title>Enterprise&#45;&gt;Spree::User</title>
<path fill="none" stroke="#03f502" d="M1514.95,-345.509C1524.27,-339.708 1535,-334.146 1545.69,-331 1607.86,-312.7 2069.2,-338.722 2128.69,-313 2140.77,-307.777 2151.47,-298.073 2159.76,-288.67"/>
<polygon fill="#03f502" stroke="#03f502" points="1514.85,-345.577 1504.02,-347.313 1510.67,-348.324 1506.49,-351.072 1506.49,-351.072 1506.49,-351.072 1510.67,-348.324 1508.97,-354.832 1514.85,-345.577 1514.85,-345.577"/>
<polygon fill="#03f502" stroke="#03f502" points="2159.78,-288.656 2169.61,-283.814 2162.96,-284.802 2166.15,-280.947 2166.15,-280.947 2166.15,-280.947 2162.96,-284.802 2162.68,-278.081 2159.78,-288.656 2159.78,-288.656"/>
<text text-anchor="middle" x="2164.07" y="-301.8" font-family="Times,serif" font-size="14.00">users</text>
</g>
<!-- Spree::PaymentMethod -->
<g id="node36" class="node"><title>Spree::PaymentMethod</title>
<ellipse fill="none" stroke="black" cx="2340.69" cy="-263" rx="93.7292" ry="18"/>
<text text-anchor="middle" x="2340.69" y="-258.8" font-family="Times,serif" font-size="14.00">Spree::PaymentMethod</text>
</g>
<!-- Enterprise&#45;&gt;Spree::PaymentMethod -->
<g id="edge18" class="edge"><title>Enterprise&#45;&gt;Spree::PaymentMethod</title>
<path fill="none" stroke="#05018a" d="M1514.95,-345.492C1524.27,-339.69 1534.99,-334.132 1545.69,-331 1681.59,-291.191 2042.99,-336.188 2182.69,-313 2220.14,-306.783 2261.04,-293.921 2291.85,-282.935"/>
<polygon fill="#05018a" stroke="#05018a" points="1514.84,-345.56 1504.02,-347.299 1510.67,-348.309 1506.49,-351.058 1506.49,-351.058 1506.49,-351.058 1510.67,-348.309 1508.96,-354.816 1514.84,-345.56 1514.84,-345.56"/>
<polygon fill="#05018a" stroke="#05018a" points="2292.08,-282.852 2303.01,-283.675 2296.78,-281.148 2301.48,-279.444 2301.48,-279.444 2301.48,-279.444 2296.78,-281.148 2299.94,-275.213 2292.08,-282.852 2292.08,-282.852"/>
<text text-anchor="middle" x="2292.01" y="-301.8" font-family="Times,serif" font-size="14.00">payment_methods</text>
</g>
<!-- Spree::ShippingMethod -->
<g id="node37" class="node"><title>Spree::ShippingMethod</title>
<ellipse fill="none" stroke="black" cx="2546.69" cy="-263" rx="94.7155" ry="18"/>
<text text-anchor="middle" x="2546.69" y="-258.8" font-family="Times,serif" font-size="14.00">Spree::ShippingMethod</text>
</g>
<!-- Enterprise&#45;&gt;Spree::ShippingMethod -->
<g id="edge20" class="edge"><title>Enterprise&#45;&gt;Spree::ShippingMethod</title>
<path fill="none" stroke="#71fed7" d="M1514.94,-345.454C1524.25,-339.651 1534.99,-334.101 1545.69,-331 1631.3,-306.192 2259.33,-324.726 2347.69,-313 2396.46,-306.527 2450.61,-292.75 2490.09,-281.449"/>
<polygon fill="#71fed7" stroke="#71fed7" points="1514.83,-345.523 1504,-347.266 1510.66,-348.274 1506.48,-351.024 1506.48,-351.024 1506.48,-351.024 1510.66,-348.274 1508.96,-354.782 1514.83,-345.523 1514.83,-345.523"/>
<polygon fill="#71fed7" stroke="#71fed7" points="2490.2,-281.418 2501.05,-282.957 2495,-280.026 2499.8,-278.635 2499.8,-278.635 2499.8,-278.635 2495,-280.026 2498.55,-274.312 2490.2,-281.418 2490.2,-281.418"/>
<text text-anchor="middle" x="2470.02" y="-301.8" font-family="Times,serif" font-size="14.00">shipping_methods</text>
</g>
<!-- Exchange -->
<g id="node15" class="node"><title>Exchange</title>
<ellipse fill="none" stroke="black" cx="889.688" cy="-104" rx="44.9423" ry="18"/>
<text text-anchor="middle" x="889.688" y="-99.8" font-family="Times,serif" font-size="14.00">Exchange</text>
</g>
<!-- EnterpriseFee&#45;&gt;Exchange -->
<g id="edge24" class="edge"><title>EnterpriseFee&#45;&gt;Exchange</title>
<path fill="none" stroke="#302e6c" d="M874.888,-241.733C857.678,-230.487 839.198,-214.751 829.688,-195 822.746,-180.584 823.178,-173.616 829.688,-159 835.594,-145.738 846.545,-134.367 857.492,-125.527"/>
<polygon fill="#302e6c" stroke="#302e6c" points="875.217,-241.936 881.349,-251.027 879.467,-244.569 883.718,-247.201 883.718,-247.201 883.718,-247.201 879.467,-244.569 886.088,-243.376 875.217,-241.936 875.217,-241.936"/>
<polygon fill="#302e6c" stroke="#302e6c" points="857.796,-125.297 868.489,-122.864 861.787,-122.285 865.777,-119.272 865.777,-119.272 865.777,-119.272 861.787,-122.285 863.066,-115.681 857.796,-125.297 857.796,-125.297"/>
</g>
<!-- ExchangeFee -->
<g id="node16" class="node"><title>ExchangeFee</title>
<ellipse fill="none" stroke="black" cx="757.688" cy="-18" rx="57.9805" ry="18"/>
<text text-anchor="middle" x="757.688" y="-13.8" font-family="Times,serif" font-size="14.00">ExchangeFee</text>
</g>
<!-- EnterpriseFee&#45;&gt;ExchangeFee -->
<g id="edge23" class="edge"><title>EnterpriseFee&#45;&gt;ExchangeFee</title>
<path fill="none" stroke="#18dd81" d="M867.275,-245.829C857.095,-240.853 846.913,-234.625 838.688,-227 785.783,-177.959 766.989,-90.258 760.672,-46.0513"/>
<ellipse fill="none" stroke="#18dd81" cx="871.028" cy="-247.558" rx="4.00002" ry="4.00002"/>
<polygon fill="#18dd81" stroke="#18dd81" points="760.66,-45.9635 763.813,-35.4606 760.006,-41.0065 759.352,-36.0495 759.352,-36.0495 759.352,-36.0495 760.006,-41.0065 754.89,-36.6385 760.66,-45.9635 760.66,-45.9635"/>
</g>
<!-- OrderCycle -->
<g id="node20" class="node"><title>OrderCycle</title>
<ellipse fill="none" stroke="black" cx="889.688" cy="-177" rx="51.2156" ry="18"/>
<text text-anchor="middle" x="889.688" y="-172.8" font-family="Times,serif" font-size="14.00">OrderCycle</text>
</g>
<!-- EnterpriseFee&#45;&gt;OrderCycle -->
<g id="edge22" class="edge"><title>EnterpriseFee&#45;&gt;OrderCycle</title>
<path fill="none" stroke="#5b43d9" d="M898.161,-236.027C896.816,-233.053 895.617,-230.008 894.688,-227 892.552,-220.083 891.282,-212.383 890.538,-205.173"/>
<polygon fill="#5b43d9" stroke="#5b43d9" points="898.267,-236.236 898.783,-247.189 900.531,-240.694 902.795,-245.152 902.795,-245.152 902.795,-245.152 900.531,-240.694 906.807,-243.114 898.267,-236.236 898.267,-236.236"/>
<polygon fill="#5b43d9" stroke="#5b43d9" points="890.532,-205.082 894.274,-194.775 890.159,-200.096 889.787,-195.11 889.787,-195.11 889.787,-195.11 890.159,-200.096 885.299,-195.445 890.532,-205.082 890.532,-205.082"/>
</g>
<!-- Spree::Calculator -->
<g id="node38" class="node"><title>Spree::Calculator</title>
<ellipse fill="none" stroke="black" cx="1030.69" cy="-177" rx="71.979" ry="18"/>
<text text-anchor="middle" x="1030.69" y="-172.8" font-family="Times,serif" font-size="14.00">Spree::Calculator</text>
</g>
<!-- EnterpriseFee&#45;&gt;Spree::Calculator -->
<g id="edge25" class="edge"><title>EnterpriseFee&#45;&gt;Spree::Calculator</title>
<path fill="none" stroke="#14de73" d="M965.811,-247.768C978.478,-242.636 991.34,-235.849 1001.69,-227 1009.36,-220.441 1015.52,-211.32 1020.16,-202.724"/>
<ellipse fill="none" stroke="#14de73" cx="961.712" cy="-249.33" rx="4.00001" ry="4.00001"/>
<ellipse fill="#14de73" stroke="#14de73" cx="1022.05" cy="-198.958" rx="4.00002" ry="4.00002"/>
<text text-anchor="middle" x="1042.28" y="-215.8" font-family="Times,serif" font-size="14.00">calculator</text>
</g>
<!-- EnterpriseFeeSet -->
<g id="node9" class="node"><title>EnterpriseFeeSet</title>
<polygon fill="none" stroke="black" points="1901.32,-385.5 1790.05,-385.5 1790.05,-349.5 1901.32,-349.5 1901.32,-385.5"/>
<text text-anchor="middle" x="1845.69" y="-363.3" font-family="Times,serif" font-size="14.00">EnterpriseFeeSet</text>
</g>
<!-- EnterpriseGroup&#45;&gt;Enterprise -->
<g id="edge26" class="edge"><title>EnterpriseGroup&#45;&gt;Enterprise</title>
<path fill="none" stroke="#dd5811" d="M1102,-282.839C1126.13,-292.974 1157.16,-305 1185.69,-313 1270.47,-336.775 1371.78,-352.204 1432.59,-360.119"/>
<polygon fill="#dd5811" stroke="#dd5811" points="1101.98,-282.83 1094.54,-274.775 1097.38,-280.873 1092.77,-278.916 1092.77,-278.916 1092.77,-278.916 1097.38,-280.873 1091.01,-283.057 1101.98,-282.83 1101.98,-282.83"/>
<polygon fill="#dd5811" stroke="#dd5811" points="1432.8,-360.147 1442.15,-365.881 1437.76,-360.782 1442.72,-361.417 1442.72,-361.417 1442.72,-361.417 1437.76,-360.782 1443.29,-356.954 1432.8,-360.147 1432.8,-360.147"/>
</g>
<!-- EnterpriseRelationshipPermission -->
<g id="node12" class="node"><title>EnterpriseRelationshipPermission</title>
<ellipse fill="none" stroke="black" cx="1250.69" cy="-177" rx="130.422" ry="18"/>
<text text-anchor="middle" x="1250.69" y="-172.8" font-family="Times,serif" font-size="14.00">EnterpriseRelationshipPermission</text>
</g>
<!-- EnterpriseRelationship&#45;&gt;EnterpriseRelationshipPermission -->
<g id="edge27" class="edge"><title>EnterpriseRelationship&#45;&gt;EnterpriseRelationshipPermission</title>
<path fill="none" stroke="#bc3801" d="M1241.55,-237.047C1243.1,-227.057 1244.88,-215.517 1246.46,-205.304"/>
<ellipse fill="none" stroke="#bc3801" cx="1240.93" cy="-241.048" rx="4.00001" ry="4.00001"/>
<polygon fill="#bc3801" stroke="#bc3801" points="1246.49,-205.144 1252.46,-195.95 1247.25,-200.203 1248.02,-195.262 1248.02,-195.262 1248.02,-195.262 1247.25,-200.203 1243.57,-194.573 1246.49,-205.144 1246.49,-205.144"/>
<text text-anchor="middle" x="1279.13" y="-215.8" font-family="Times,serif" font-size="14.00">permissions</text>
</g>
<!-- EnterpriseSet -->
<g id="node14" class="node"><title>EnterpriseSet</title>
<polygon fill="none" stroke="black" points="2050.61,-385.5 1958.77,-385.5 1958.77,-349.5 2050.61,-349.5 2050.61,-385.5"/>
<text text-anchor="middle" x="2004.69" y="-363.3" font-family="Times,serif" font-size="14.00">EnterpriseSet</text>
</g>
<!-- Exchange&#45;&gt;ExchangeFee -->
<g id="edge30" class="edge"><title>Exchange&#45;&gt;ExchangeFee</title>
<path fill="none" stroke="#8f39e0" d="M859.725,-83.9325C839.221,-70.8849 812.026,-53.579 790.868,-40.1146"/>
<ellipse fill="none" stroke="#8f39e0" cx="863.32" cy="-86.2208" rx="4.00002" ry="4.00002"/>
<polygon fill="#8f39e0" stroke="#8f39e0" points="790.643,-39.9717 784.623,-30.8064 786.425,-37.2873 782.207,-34.6029 782.207,-34.6029 782.207,-34.6029 786.425,-37.2873 779.791,-38.3994 790.643,-39.9717 790.643,-39.9717"/>
</g>
<!-- ExchangeVariant -->
<g id="node17" class="node"><title>ExchangeVariant</title>
<ellipse fill="none" stroke="black" cx="903.688" cy="-18" rx="70.5168" ry="18"/>
<text text-anchor="middle" x="903.688" y="-13.8" font-family="Times,serif" font-size="14.00">ExchangeVariant</text>
</g>
<!-- Exchange&#45;&gt;ExchangeVariant -->
<g id="edge28" class="edge"><title>Exchange&#45;&gt;ExchangeVariant</title>
<path fill="none" stroke="#c5e8fb" d="M893.847,-78.0469C895.512,-68.0569 897.435,-56.5171 899.137,-46.304"/>
<ellipse fill="none" stroke="#c5e8fb" cx="893.178" cy="-82.0558" rx="4.00001" ry="4.00001"/>
<polygon fill="#c5e8fb" stroke="#c5e8fb" points="899.167,-46.1256 905.25,-37.0015 899.989,-41.1937 900.811,-36.2617 900.811,-36.2617 900.811,-36.2617 899.989,-41.1937 896.372,-35.5219 899.167,-46.1256 899.167,-46.1256"/>
</g>
<!-- Spree::Variant -->
<g id="node39" class="node"><title>Spree::Variant</title>
<ellipse fill="none" stroke="black" cx="1052.69" cy="-18" rx="60.8873" ry="18"/>
<text text-anchor="middle" x="1052.69" y="-13.8" font-family="Times,serif" font-size="14.00">Spree::Variant</text>
</g>
<!-- Exchange&#45;&gt;Spree::Variant -->
<g id="edge29" class="edge"><title>Exchange&#45;&gt;Spree::Variant</title>
<path fill="none" stroke="#d6db4f" d="M925.363,-84.6151C951.739,-71.0227 987.601,-52.5419 1014.54,-38.6569"/>
<polygon fill="#d6db4f" stroke="#d6db4f" points="925.128,-84.7361 914.178,-85.3169 920.684,-87.0265 916.239,-89.317 916.239,-89.317 916.239,-89.317 920.684,-87.0265 918.301,-93.3171 925.128,-84.7361 925.128,-84.7361"/>
<polygon fill="#d6db4f" stroke="#d6db4f" points="1014.78,-38.5338 1025.73,-37.9529 1019.23,-36.2433 1023.67,-33.9528 1023.67,-33.9528 1023.67,-33.9528 1019.23,-36.2433 1021.61,-29.9527 1014.78,-38.5338 1014.78,-38.5338"/>
<text text-anchor="middle" x="1003.85" y="-56.8" font-family="Times,serif" font-size="14.00">variants</text>
</g>
<!-- ModelSet -->
<g id="node18" class="node"><title>ModelSet</title>
<polygon fill="none" stroke="black" points="2159.13,-385.5 2088.24,-385.5 2088.24,-349.5 2159.13,-349.5 2159.13,-385.5"/>
<text text-anchor="middle" x="2123.69" y="-363.3" font-family="Times,serif" font-size="14.00">ModelSet</text>
</g>
<!-- OpenFoodNetwork::Calculator::Weight -->
<g id="node19" class="node"><title>OpenFoodNetwork::Calculator::Weight</title>
<ellipse fill="none" stroke="black" cx="2337.69" cy="-367.5" rx="150.252" ry="18"/>
<text text-anchor="middle" x="2337.69" y="-363.3" font-family="Times,serif" font-size="14.00">OpenFoodNetwork::Calculator::Weight</text>
</g>
<!-- OrderCycle&#45;&gt;EnterpriseFee -->
<g id="edge31" class="edge"><title>OrderCycle&#45;&gt;EnterpriseFee</title>
<path fill="none" stroke="#d783f0" d="M897.359,-204.849C900.117,-214.504 903.228,-225.392 905.989,-235.055"/>
<polygon fill="#d783f0" stroke="#d783f0" points="897.285,-204.589 898.864,-193.737 895.911,-199.781 894.537,-194.973 894.537,-194.973 894.537,-194.973 895.911,-199.781 890.21,-196.21 897.285,-204.589 897.285,-204.589"/>
<polygon fill="#d783f0" stroke="#d783f0" points="906.084,-235.386 904.504,-246.238 907.457,-240.194 908.831,-245.001 908.831,-245.001 908.831,-245.001 907.457,-240.194 913.158,-243.765 906.084,-235.386 906.084,-235.386"/>
<text text-anchor="middle" x="950.722" y="-215.8" font-family="Times,serif" font-size="14.00">coordinator_fees</text>
</g>
<!-- OrderCycle&#45;&gt;Exchange -->
<g id="edge32" class="edge"><title>OrderCycle&#45;&gt;Exchange</title>
<path fill="none" stroke="#1756a9" d="M889.688,-150.791C889.688,-144.832 889.688,-138.45 889.688,-132.399"/>
<ellipse fill="none" stroke="#1756a9" cx="889.688" cy="-154.813" rx="4" ry="4"/>
<polygon fill="#1756a9" stroke="#1756a9" points="889.688,-132.029 894.188,-122.029 889.688,-127.029 889.688,-122.029 889.688,-122.029 889.688,-122.029 889.688,-127.029 885.188,-122.029 889.688,-132.029 889.688,-132.029"/>
</g>
<!-- OrderCycleSet -->
<g id="node21" class="node"><title>OrderCycleSet</title>
<polygon fill="none" stroke="black" points="2610.38,-385.5 2510.99,-385.5 2510.99,-349.5 2610.38,-349.5 2610.38,-385.5"/>
<text text-anchor="middle" x="2560.69" y="-363.3" font-family="Times,serif" font-size="14.00">OrderCycleSet</text>
</g>
<!-- Spree::Gateway::Migs -->
<g id="node24" class="node"><title>Spree::Gateway::Migs</title>
<ellipse fill="none" stroke="black" cx="2719.69" cy="-367.5" rx="89.8619" ry="18"/>
<text text-anchor="middle" x="2719.69" y="-363.3" font-family="Times,serif" font-size="14.00">Spree::Gateway::Migs</text>
</g>
<!-- Spree::Gateway::Enterprise -->
<g id="node40" class="node"><title>Spree::Gateway::Enterprise</title>
<ellipse fill="none" stroke="black" cx="2838.69" cy="-263" rx="107.677" ry="18"/>
<text text-anchor="middle" x="2838.69" y="-258.8" font-family="Times,serif" font-size="14.00">Spree::Gateway::Enterprise</text>
</g>
<!-- Spree::Gateway::Migs&#45;&gt;Spree::Gateway::Enterprise -->
<g id="edge33" class="edge"><title>Spree::Gateway::Migs&#45;&gt;Spree::Gateway::Enterprise</title>
<path fill="none" stroke="#e49b4f" d="M2745.97,-342.776C2760.55,-329.719 2779.1,-313.308 2795.91,-299 2800.4,-295.174 2805.21,-291.167 2809.91,-287.286"/>
<polygon fill="#e49b4f" stroke="#e49b4f" points="2745.75,-342.972 2735.3,-346.301 2742.02,-346.311 2738.3,-349.65 2738.3,-349.65 2738.3,-349.65 2742.02,-346.311 2741.31,-353 2745.75,-342.972 2745.75,-342.972"/>
<polygon fill="#e49b4f" stroke="#e49b4f" points="2809.93,-287.269 2820.52,-284.408 2813.8,-284.098 2817.66,-280.928 2817.66,-280.928 2817.66,-280.928 2813.8,-284.098 2814.81,-277.448 2809.93,-287.269 2809.93,-287.269"/>
<text text-anchor="middle" x="2827.58" y="-301.8" font-family="Times,serif" font-size="14.00">distributors</text>
</g>
<!-- Spree::Gateway::Pin -->
<g id="node25" class="node"><title>Spree::Gateway::Pin</title>
<ellipse fill="none" stroke="black" cx="2910.69" cy="-367.5" rx="83.0891" ry="18"/>
<text text-anchor="middle" x="2910.69" y="-363.3" font-family="Times,serif" font-size="14.00">Spree::Gateway::Pin</text>
</g>
<!-- Spree::Gateway::Pin&#45;&gt;Spree::Gateway::Enterprise -->
<g id="edge34" class="edge"><title>Spree::Gateway::Pin&#45;&gt;Spree::Gateway::Enterprise</title>
<path fill="none" stroke="#101174" d="M2892.91,-341.192C2881.79,-325.357 2867.51,-305.035 2856.4,-289.218"/>
<polygon fill="#101174" stroke="#101174" points="2893.05,-341.391 2895.12,-352.161 2895.92,-345.483 2898.8,-349.574 2898.8,-349.574 2898.8,-349.574 2895.92,-345.483 2902.48,-346.988 2893.05,-341.391 2893.05,-341.391"/>
<polygon fill="#101174" stroke="#101174" points="2856.34,-289.134 2854.28,-278.364 2853.47,-285.042 2850.59,-280.951 2850.59,-280.951 2850.59,-280.951 2853.47,-285.042 2846.91,-283.538 2856.34,-289.134 2856.34,-289.134"/>
<text text-anchor="middle" x="2903.58" y="-301.8" font-family="Times,serif" font-size="14.00">distributors</text>
</g>
<!-- Spree::ProductSet -->
<g id="node26" class="node"><title>Spree::ProductSet</title>
<polygon fill="none" stroke="black" points="3129.28,-385.5 3012.09,-385.5 3012.09,-349.5 3129.28,-349.5 3129.28,-385.5"/>
<text text-anchor="middle" x="3070.69" y="-363.3" font-family="Times,serif" font-size="14.00">Spree::ProductSet</text>
</g>
<!-- Suburb -->
<g id="node27" class="node"><title>Suburb</title>
<ellipse fill="none" stroke="black" cx="3182.69" cy="-367.5" rx="35.8147" ry="18"/>
<text text-anchor="middle" x="3182.69" y="-363.3" font-family="Times,serif" font-size="14.00">Suburb</text>
</g>
<!-- VariantOverride -->
<g id="node28" class="node"><title>VariantOverride</title>
<ellipse fill="none" stroke="black" cx="3303.69" cy="-367.5" rx="67.1424" ry="18"/>
<text text-anchor="middle" x="3303.69" y="-363.3" font-family="Times,serif" font-size="14.00">VariantOverride</text>
</g>
<!-- VariantOverrideSet -->
<g id="node29" class="node"><title>VariantOverrideSet</title>
<polygon fill="none" stroke="black" points="3512.76,-385.5 3388.62,-385.5 3388.62,-349.5 3512.76,-349.5 3512.76,-385.5"/>
<text text-anchor="middle" x="3450.69" y="-363.3" font-family="Times,serif" font-size="14.00">VariantOverrideSet</text>
</g>
</g>
</svg>
